<?xml version="1.0"?>
<svg xmlns="http://www.w3.org/2000/svg" xmlns:xlink="http://www.w3.org/1999/xlink" version="1.1" id="Capa_1" x="0px" y="0px" viewBox="0 0 512 512" style="enable-background:new 0 0 512 512;" xml:space="preserve" width="512px" height="512px" class=""><g><g>
	<g>
		<rect x="85.333" y="288" width="21.333" height="74.667" data-original="#000000" class="active-path" data-old_color="#000000" fill="#212121"/>
	</g>
</g><g>
	<g>
		<path d="M138.667,277.333H53.333C23.893,277.369,0.035,301.226,0,330.667v128C0.035,488.107,23.893,511.965,53.333,512h85.333    c29.441-0.035,53.298-23.893,53.333-53.333v-128C191.965,301.226,168.107,277.369,138.667,277.333z M170.667,458.667    c0,17.673-14.327,32-32,32H53.333c-17.673,0-32-14.327-32-32v-128c0-17.673,14.327-32,32-32h85.333c17.673,0,32,14.327,32,32    V458.667z" data-original="#000000" class="active-path" data-old_color="#000000" fill="#212121"/>
	</g>
</g><g>
	<g>
		<rect x="53.333" y="352" width="85.333" height="21.333" data-original="#000000" class="active-path" data-old_color="#000000" fill="#212121"/>
	</g>
</g><g>
	<g>
		<path d="M138.667,0c-29.441,0.035-53.298,23.893-53.333,53.333v192h21.333v-192c0-17.673,14.327-32,32-32H192V0H138.667z" data-original="#000000" class="active-path" data-old_color="#000000" fill="#212121"/>
	</g>
</g><g>
	<g>
		<path d="M458.667,0H416v21.333h42.667c17.673,0,32,14.327,32,32v405.333c0,17.673-14.327,32-32,32h-64V512h64    c29.441-0.035,53.298-23.893,53.333-53.333V53.333C511.965,23.893,488.107,0.035,458.667,0z" data-original="#000000" class="active-path" data-old_color="#000000" fill="#212121"/>
	</g>
</g><g>
	<g>
		<rect x="224" y="256" width="53.333" height="21.333" data-original="#000000" class="active-path" data-old_color="#000000" fill="#212121"/>
	</g>
</g><g>
	<g>
		<rect x="224" y="362.667" width="53.333" height="21.333" data-original="#000000" class="active-path" data-old_color="#000000" fill="#212121"/>
	</g>
</g><g>
	<g>
		<rect x="224" y="149.333" width="53.333" height="21.333" data-original="#000000" class="active-path" data-old_color="#000000" fill="#212121"/>
	</g>
</g><g>
	<g>
		<path d="M298.667,21.333h-64c-11.782,0-21.333,9.551-21.333,21.333v448c0,11.782,9.551,21.333,21.333,21.333h64    c11.782,0,21.333-9.551,21.333-21.333v-448C320,30.885,310.449,21.333,298.667,21.333z M298.667,490.667h-64v-448h64V490.667z" data-original="#000000" class="active-path" data-old_color="#000000" fill="#212121"/>
	</g>
</g><g>
	<g>
		<rect x="224" y="202.667" width="42.667" height="21.333" data-original="#000000" class="active-path" data-old_color="#000000" fill="#212121"/>
	</g>
</g><g>
	<g>
		<rect x="224" y="309.333" width="42.667" height="21.333" data-original="#000000" class="active-path" data-old_color="#000000" fill="#212121"/>
	</g>
</g><g>
	<g>
		<rect x="224" y="416" width="42.667" height="21.333" data-original="#000000" class="active-path" data-old_color="#000000" fill="#212121"/>
	</g>
</g><g>
	<g>
		<rect x="224" y="96" width="42.667" height="21.333" data-original="#000000" class="active-path" data-old_color="#000000" fill="#212121"/>
	</g>
</g><g>
	<g>
		<path d="M416,266.667V448h-21.333v21.333h32c5.891,0,10.667-4.776,10.667-10.667v-192H416z" data-original="#000000" class="active-path" data-old_color="#000000" fill="#212121"/>
	</g>
</g><g>
	<g>
		<path d="M403.541,58.08l-21.333-32c-0.635-0.849-1.388-1.602-2.236-2.237c-4.901-3.666-11.847-2.665-15.513,2.237l-21.333,32    c-1.165,1.755-1.789,3.814-1.792,5.92v437.333c0,5.891,4.776,10.667,10.667,10.667h42.667c5.891,0,10.667-4.776,10.667-10.667V64    C405.33,61.894,404.707,59.835,403.541,58.08z M384,490.667h-21.333V67.2l10.667-16L384,67.2V490.667z" data-original="#000000" class="active-path" data-old_color="#000000" fill="#212121"/>
	</g>
</g><g>
	<g>
		<rect x="352" y="416" width="42.667" height="21.333" data-original="#000000" class="active-path" data-old_color="#000000" fill="#212121"/>
	</g>
</g></g> </svg>
